<svg preserveAspectRatio="none" overflow="visible" style="display: block;" width="16.5" height="15" viewBox="0 0 16.5 15" fill="none" xmlns="http://www.w3.org/2000/svg">
<g id="Container">
<path id="Icon" d="M7.5 9V9V9V9V9V9V9V9V9V9V9V9V9V9V9V9V9V9M1.5 15C1.0875 15 0.734375 14.8531 0.440625 14.5594C0.146875 14.2656 0 13.9125 0 13.5V4.5C0 4.0875 0.146875 3.73437 0.440625 3.44062C0.734375 3.14687 1.0875 3 1.5 3H3.8625L5.25 1.5H9.75V3H5.90625L4.5375 4.5H1.5V4.5V4.5V13.5V13.5V13.5H13.5V13.5V13.5V6.75H15V13.5C15 13.9125 14.8531 14.2656 14.5594 14.5594C14.2656 14.8531 13.9125 15 13.5 15H1.5V15M13.5 4.5V3H12V1.5H13.5V0H15V1.5H16.5V3H15V4.5H13.5V4.5M7.5 12.375C8.4375 12.375 9.23438 12.0469 9.89062 11.3906C10.5469 10.7344 10.875 9.9375 10.875 9C10.875 8.0625 10.5469 7.26562 9.89062 6.60938C9.23438 5.95312 8.4375 5.625 7.5 5.625C6.5625 5.625 5.76562 5.95312 5.10938 6.60938C4.45312 7.26562 4.125 8.0625 4.125 9C4.125 9.9375 4.45312 10.7344 5.10938 11.3906C5.76562 12.0469 6.5625 12.375 7.5 12.375V12.375M7.5 10.875C6.975 10.875 6.53125 10.6938 6.16875 10.3313C5.80625 9.96875 5.625 9.525 5.625 9C5.625 8.475 5.80625 8.03125 6.16875 7.66875C6.53125 7.30625 6.975 7.125 7.5 7.125C8.025 7.125 8.46875 7.30625 8.83125 7.66875C9.19375 8.03125 9.375 8.475 9.375 9C9.375 9.525 9.19375 9.96875 8.83125 10.3313C8.46875 10.6938 8.025 10.875 7.5 10.875V10.875" fill="#41493E"/>
</g>
</svg>
